<svg width="371" height="210" viewBox="0 0 371 210" fill="none" xmlns="http://www.w3.org/2000/svg">
<path d="M175.501 35C172.701 33.4 183.001 21.6667 188.501 16C190.502 16 204 33 202 35C200 37 179.001 37 175.501 35Z" stroke="#1E1E1E" stroke-width="7"/>
<path d="M162.999 12.9999C163.399 8.99993 168.499 6.49999 168.499 6.99992C181.5 0.999991 205 5.49992 208 6.99992C210.4 8.19992 212 11.4999 212.5 12.9999C219.3 32.9999 214.333 43.6666 211 46.4999C205 55 167.04 53.4999 162.999 46.4999C158.957 39.4999 162.499 17.9999 162.999 12.9999Z" stroke="#1E1E1E" stroke-width="7"/>
<path d="M174.502 4.50005C170.002 4.16671 159.902 4.30005 155.502 7.50005C150.002 11.5 149.502 14 149.502 16.5C149.502 19 141.002 64 142.502 68.5C144.002 73 145.003 81.5 155.502 83.5C166 85.5 225.5 85.5 229 79.5C230.333 78.5 231.5 76.5 233 73.5C234.342 70.8167 229 15.5 226 10C224.13 6.57173 217.5 4.50005 216 4.50005" stroke="#1E1E1E" stroke-width="7" stroke-linecap="round"/>
<path d="M161.498 44L142.998 65.5M205.998 50.5L223.998 79.5M148.998 18.5C125.332 24.5 75.1983 48.1 63.9983 94.5M63.9983 94.5L103.498 96.5C106.665 98.1667 112.698 103.2 111.498 110C110.298 116.8 105.665 133.833 103.498 141.5M63.9983 94.5C56.9983 94.1456 40.9983 141.5 47.4983 146.5C48.738 147.454 50.8507 148.189 53.5 148.755M63.9983 94.5C60.6643 93.6667 52.6967 93.4 47.4983 99C41.0002 106 20.5002 160 21.5002 170C22.5002 180 25.5339 183.768 30 184M103.498 141.5C101.165 144.5 95.2983 150 90.4983 150C85.6426 150 64.7413 151.155 53.5 148.755M103.498 141.5L111.498 173M30 184C32 184.104 47 159.836 53.5 148.755M30 184C48.8339 185 88.2014 186.4 95 184C103.498 181 111.498 176 111.498 173M111.498 173C111.498 170.6 118.833 130 122.5 110M170.5 110L204 138.5M199.5 110L166 138.5M166 96.5C160 98.1 157.167 104.5 156.5 107.5C155.238 111 153.5 130.5 153 136.5M166 96.5C172 94.9 195.166 95.8333 205.998 96.5M166 96.5C162.333 96 153.798 95.9 148.998 99.5C142.998 104 141 105.5 140 110C139 114.5 127 160 133.5 173M205.998 96.5C208.332 97 213.3 99.2 214.5 104C216 110 223 123.5 217.5 138.5C216.667 141.918 216.5 146.5 209.5 148.755C208.505 149.075 206.525 149.017 204 149.392M205.998 96.5C212.497 96.8517 222 99.5 228.5 104C235 108.5 239 166 239.5 173C239.9 178.6 232.333 182.667 228.5 184M153 136.5C152.6 141.3 158.499 146.67 161.498 148.755C171.675 154.63 193.244 150.989 204 149.392M153 136.5L135.5 162C134.167 163.5 131.9 167.8 133.5 173M133.5 173C135.5 179.5 141.497 185 148.998 186M170.5 186C189.333 186.333 227.3 186.4 228.5 184M228.5 184C229.7 181.6 212.667 159.928 204 149.392M252.5 110C255 129.667 260.5 168 262.5 173M262.5 173C264.252 177.38 272.5 186 279.5 186C286.5 186 337.679 186.928 340 186M262.5 173L272.034 140.75M340 186C342.5 185 352 186 353 169.5C347 130.5 332.7 103.7 329.5 100.5C325.5 96.5 317.5 96.5 314.5 96.5M340 186L319 151.719M314.5 96.5C311.5 96.5 274.5 94.5 271.5 96.5C268.5 98.5 263 102 264.5 110C265.719 116.499 266.937 130.42 270.568 138.5M314.5 96.5C318.667 109.833 327 136.9 327 138.5C327 140.5 329.5 143 327 148.755C326.374 150.196 323.313 151.135 319 151.719M273.5 143C278.3 147.604 280.5 150.5 285 152C294.044 152.575 309.537 153.001 319 151.719M273.5 143C272.374 141.92 271.407 140.366 270.568 138.5M273.5 143L272.034 140.75M270.568 138.5L272.034 140.75M69 110H90.4983C91.9988 110.333 95 112.1 95 116.5C95 120.9 91.9988 130.667 90.4983 135C89.9788 136.5 86.6 138.1 83 138.5C78.5 139 64 141.5 62 136.5C60.4 132.5 61.375 130.5 62 128C63.5 122 65.5 110 69 110Z" stroke="#1E1E1E" stroke-width="7" stroke-linecap="round"/>
<path d="M231.5 21C253.333 28.3333 300.3 53.2 313.5 94" stroke="#1E1E1E" stroke-width="7" stroke-linecap="round"/>
<path d="M3.5 206H7.5M19.5 206H34M46.5 206H325M336.5 206H351M363 206H367.5" stroke="#1E1E1E" stroke-width="7" stroke-linecap="round"/>
<path d="M294.5 110.5C303.172 110.5 309.5 116.686 309.5 123.5C309.5 130.314 303.172 136.5 294.5 136.5C285.828 136.5 279.5 130.314 279.5 123.5C279.5 116.686 285.828 110.5 294.5 110.5Z" stroke="#1E1E1E" stroke-width="7"/>
</svg>
