<svg width="24" height="24" viewBox="0 0 24 24" fill="none" xmlns="http://www.w3.org/2000/svg">
<rect width="24" height="24" rx="12" fill="#808080" fill-opacity="0.7"/>
<path fill-rule="evenodd" clip-rule="evenodd" d="M18.6562 11.1488L15.8375 13.6088L16.6819 17.2712C16.7732 17.6627 16.6213 18.0708 16.2963 18.3072C15.9712 18.5437 15.5361 18.5625 15.1919 18.355L11.9975 16.4175L8.81 18.355C8.46573 18.5625 8.03069 18.5437 7.70562 18.3072C7.38056 18.0708 7.22865 17.6627 7.32 17.2712L8.16313 13.6125L5.34375 11.1488C5.03886 10.8858 4.92141 10.4656 5.04573 10.0827C5.17006 9.69975 5.51192 9.42871 5.91313 9.395L9.62937 9.07313L11.08 5.61313C11.2349 5.24189 11.5977 5.00012 12 5.00012C12.4023 5.00012 12.7651 5.24189 12.92 5.61313L14.375 9.07313L18.09 9.395C18.4912 9.42871 18.8331 9.69975 18.9574 10.0827C19.0817 10.4656 18.9643 10.8858 18.6594 11.1488H18.6562Z" fill="white"/>
</svg>
